{
  "accessors": [
    {
      "bufferView": 2,
      "componentType": 5126,
      "count": 4571,
      "max": [
        0.5136899948120117,
        0.08274009823799133,
        0.4999397099018097
      ],
      "min": [
        -0.05351545289158821,
        -0.49843472242355347,
        -0.025575842708349228
      ],
      "type": "VEC3"
    },
    {
      "bufferView": 2,
      "byteOffset": 54852,
      "componentType": 5126,
      "count": 4571,
      "max": [
        0.9999850988388062,
        0.9999804496765137,
        0.9996396899223328
      ],
      "min": [
        -0.997655987739563,
        -0.9999867081642151,
        -0.9995946288108826
      ],
      "type": "VEC3"
    },
    {
      "bufferView": 1,
      "componentType": 5126,
      "count": 4571,
      "max": [
        0.960837721824646,
        0.9227613806724548
      ],
      "min": [
        0.06766743957996368,
        0.025923950597643852
      ],
      "type": "VEC2"
    },
    {
      "bufferView": 1,
      "byteOffset": 36568,
      "componentType": 5126,
      "count": 4571,
      "max": [
        0.960837721824646,
        0.9227613806724548
      ],
      "min": [
        0.06766743957996368,
        0.025923950597643852
      ],
      "type": "VEC2"
    },
    {
      "bufferView": 0,
      "componentType": 5125,
      "count": 27072,
      "type": "SCALAR"
    },
    {
      "bufferView": 2,
      "byteOffset": 109704,
      "componentType": 5126,
      "count": 1506,
      "max": [
        0.1949721872806549,
        0.4988313317298889,
        0.017769919708371162
      ],
      "min": [
        -0.2597499191761017,
        -0.04979342967271805,
        -0.3435556888580322
      ],
      "type": "VEC3"
    },
    {
      "bufferView": 2,
      "byteOffset": 127776,
      "componentType": 5126,
      "count": 1506,
      "max": [
        0.9975546598434448,
        0.9984064698219299,
        0.9975470900535583
      ],
      "min": [
        -0.9999865293502808,
        -0.9957805275917053,
        -0.9993646144866943
      ],
      "type": "VEC3"
    },
    {
      "bufferView": 1,
      "byteOffset": 73136,
      "componentType": 5126,
      "count": 1506,
      "max": [
        0.9339601397514343,
        0.9884769320487976
      ],
      "min": [
        0.024255095049738884,
        0.040901608765125275
      ],
      "type": "VEC2"
    },
    {
      "bufferView": 1,
      "byteOffset": 85184,
      "componentType": 5126,
      "count": 1506,
      "max": [
        0.9339601397514343,
        0.9884769320487976
      ],
      "min": [
        0.024255095049738884,
        0.040901608765125275
      ],
      "type": "VEC2"
    },
    {
      "bufferView": 0,
      "byteOffset": 108288,
      "componentType": 5125,
      "count": 9024,
      "type": "SCALAR"
    },
    {
      "bufferView": 2,
      "byteOffset": 145848,
      "componentType": 5126,
      "count": 608,
      "max": [
        0.4835764169692993,
        0.15126770734786987,
        0.23096272349357605
      ],
      "min": [
        0.1985049992799759,
        0.07910162210464478,
        0.06788279116153717
      ],
      "type": "VEC3"
    },
    {
      "bufferView": 2,
      "byteOffset": 153144,
      "componentType": 5126,
      "count": 608,
      "max": [
        0.555592954158783,
        0.1987370401620865,
        0.6159502863883972
      ],
      "min": [
        -0.9296278953552246,
        -0.9999825358390808,
        -0.9902061223983765
      ],
      "type": "VEC3"
    },
    {
      "bufferView": 1,
      "byteOffset": 97232,
      "componentType": 5126,
      "count": 608,
      "max": [
        0.9660866260528564,
        0.9501549601554871
      ],
      "min": [
        0.04587851092219353,
        0.03072686307132244
      ],
      "type": "VEC2"
    },
    {
      "bufferView": 1,
      "byteOffset": 102096,
      "componentType": 5126,
      "count": 608,
      "max": [
        0.9660866260528564,
        0.9501549601554871
      ],
      "min": [
        0.04587851092219353,
        0.03072686307132244
      ],
      "type": "VEC2"
    },
    {
      "bufferView": 0,
      "byteOffset": 144384,
      "componentType": 5125,
      "count": 3264,
      "type": "SCALAR"
    },
    {
      "bufferView": 2,
      "byteOffset": 160440,
      "componentType": 5126,
      "count": 1671,
      "max": [
        0.14916709065437317,
        -0.0034978692419826984,
        -0.07725778222084045
      ],
      "min": [
        -0.121321901679039,
        -0.09957754611968994,
        -0.37309926748275757
      ],
      "type": "VEC3"
    },
    {
      "bufferView": 2,
      "byteOffset": 180492,
      "componentType": 5126,
      "count": 1671,
      "max": [
        0.999373197555542,
        0.9994133710861206,
        0.9987738132476807
      ],
      "min": [
        -0.9971842169761658,
        -0.9999172687530518,
        -0.9878736734390259
      ],
      "type": "VEC3"
    },
    {
      "bufferView": 1,
      "byteOffset": 106960,
      "componentType": 5126,
      "count": 1671,
      "max": [
        0.9813399314880371,
        0.8778302073478699
      ],
      "min": [
        0.03643353655934334,
        0.08585632592439651
      ],
      "type": "VEC2"
    },
    {
      "bufferView": 1,
      "byteOffset": 120328,
      "componentType": 5126,
      "count": 1671,
      "max": [
        0.9813399314880371,
        0.8778302073478699
      ],
      "min": [
        0.03643353655934334,
        0.08585632592439651
      ],
      "type": "VEC2"
    },
    {
      "bufferView": 0,
      "byteOffset": 157440,
      "componentType": 5125,
      "count": 9696,
      "type": "SCALAR"
    },
    {
      "bufferView": 2,
      "byteOffset": 200544,
      "componentType": 5126,
      "count": 409,
      "max": [
        0.45805931091308594,
        -0.02907225675880909,
        0.5013870000839233
      ],
      "min": [
        0.3202633261680603,
        -0.16590064764022827,
        0.4727697968482971
      ],
      "type": "VEC3"
    },
    {
      "bufferView": 2,
      "byteOffset": 205452,
      "componentType": 5126,
      "count": 409,
      "max": [
        0.4337448179721832,
        0.36431172490119934,
        -0.4952675402164459
      ],
      "min": [
        -0.832399845123291,
        -0.645307183265686,
        -0.9994468688964844
      ],
      "type": "VEC3"
    },
    {
      "bufferView": 1,
      "byteOffset": 133696,
      "componentType": 5126,
      "count": 409,
      "max": [
        0.814321756362915,
        0.9497324228286743
      ],
      "min": [
        0.006455041468143463,
        0.042590588331222534
      ],
      "type": "VEC2"
    },
    {
      "bufferView": 1,
      "byteOffset": 136968,
      "componentType": 5126,
      "count": 409,
      "max": [
        0.814321756362915,
        0.9497324228286743
      ],
      "min": [
        0.006455041468143463,
        0.042590588331222534
      ],
      "type": "VEC2"
    },
    {
      "bufferView": 0,
      "byteOffset": 196224,
      "componentType": 5125,
      "count": 2352,
      "type": "SCALAR"
    },
    {
      "bufferView": 2,
      "byteOffset": 210360,
      "componentType": 5126,
      "count": 67,
      "max": [
        0.0978296622633934,
        0.01937996596097946,
        0.05731586366891861
      ],
      "min": [
        0.088592030107975,
        0.006577553693205118,
        0.05063030496239662
      ],
      "type": "VEC3"
    },
    {
      "bufferView": 2,
      "byteOffset": 211164,
      "componentType": 5126,
      "count": 67,
      "max": [
        0.8170717358589172,
        0.9974381327629089,
        0.5410996079444885
      ],
      "min": [
        -0.9888467192649841,
        -0.9700162410736084,
        -0.9825421571731567
      ],
      "type": "VEC3"
    },
    {
      "bufferView": 1,
      "byteOffset": 140240,
      "componentType": 5126,
      "count": 67,
      "max": [
        0.8427377939224243,
        0.6484893560409546
      ],
      "min": [
        0.26511889696121216,
        0.04830268770456314
      ],
      "type": "VEC2"
    },
    {
      "bufferView": 1,
      "byteOffset": 140776,
      "componentType": 5126,
      "count": 67,
      "max": [
        0.8427377939224243,
        0.6484893560409546
      ],
      "min": [
        0.26511889696121216,
        0.04830268770456314
      ],
      "type": "VEC2"
    },
    {
      "bufferView": 0,
      "byteOffset": 205632,
      "componentType": 5125,
      "count": 360,
      "type": "SCALAR"
    },
    {
      "bufferView": 2,
      "byteOffset": 211968,
      "componentType": 5126,
      "count": 1506,
      "max": [
        0.2597498893737793,
        0.4988313317298889,
        0.01776985079050064
      ],
      "min": [
        -0.1949722170829773,
        -0.04979349672794342,
        -0.3435556888580322
      ],
      "type": "VEC3"
    },
    {
      "bufferView": 2,
      "byteOffset": 230040,
      "componentType": 5126,
      "count": 1506,
      "max": [
        0.9999865889549255,
        0.9984063506126404,
        0.9975470304489136
      ],
      "min": [
        -0.9975546002388,
        -0.9957806468009949,
        -0.9993646144866943
      ],
      "type": "VEC3"
    },
    {
      "bufferView": 1,
      "byteOffset": 141312,
      "componentType": 5126,
      "count": 1506,
      "max": [
        0.9664466381072998,
        0.9884772896766663
      ],
      "min": [
        0.03587868809700012,
        0.04090162366628647
      ],
      "type": "VEC2"
    },
    {
      "bufferView": 1,
      "byteOffset": 153360,
      "componentType": 5126,
      "count": 1506,
      "max": [
        0.9664466381072998,
        0.9884772896766663
      ],
      "min": [
        0.03587868809700012,
        0.04090162366628647
      ],
      "type": "VEC2"
    },
    {
      "bufferView": 0,
      "byteOffset": 207072,
      "componentType": 5125,
      "count": 9024,
      "type": "SCALAR"
    },
    {
      "bufferView": 2,
      "byteOffset": 248112,
      "componentType": 5126,
      "count": 409,
      "max": [
        -0.3202633261680603,
        -0.02907225675880909,
        0.5013870000839233
      ],
      "min": [
        -0.4580593407154083,
        -0.16590064764022827,
        0.4727697968482971
      ],
      "type": "VEC3"
    },
    {
      "bufferView": 2,
      "byteOffset": 253020,
      "componentType": 5126,
      "count": 409,
      "max": [
        0.8324050903320313,
        0.36430051922798157,
        -0.4952773451805115
      ],
      "min": [
        -0.43374770879745483,
        -0.645333468914032,
        -0.9994469881057739
      ],
      "type": "VEC3"
    },
    {
      "bufferView": 1,
      "byteOffset": 165408,
      "componentType": 5126,
      "count": 409,
      "max": [
        0.978110134601593,
        0.9497325420379639
      ],
      "min": [
        0.013965025544166565,
        0.04259050637483597
      ],
      "type": "VEC2"
    },
    {
      "bufferView": 1,
      "byteOffset": 168680,
      "componentType": 5126,
      "count": 409,
      "max": [
        0.978110134601593,
        0.9497325420379639
      ],
      "min": [
        0.013965025544166565,
        0.04259050637483597
      ],
      "type": "VEC2"
    },
    {
      "bufferView": 0,
      "byteOffset": 243168,
      "componentType": 5125,
      "count": 2352,
      "type": "SCALAR"
    },
    {
      "bufferView": 2,
      "byteOffset": 257928,
      "componentType": 5126,
      "count": 67,
      "max": [
        -0.08859201520681381,
        0.019379980862140656,
        0.057315848767757416
      ],
      "min": [
        -0.09782963991165161,
        0.006577568594366312,
        0.050630293786525726
      ],
      "type": "VEC3"
    },
    {
      "bufferView": 2,
      "byteOffset": 258732,
      "componentType": 5126,
      "count": 67,
      "max": [
        0.9888468384742737,
        0.997438371181488,
        0.5411021113395691
      ],
      "min": [
        -0.8170714974403381,
        -0.9700162410736084,
        -0.9825423359870911
      ],
      "type": "VEC3"
    },
    {
      "bufferView": 1,
      "byteOffset": 171952,
      "componentType": 5126,
      "count": 67,
      "max": [
        0.7513225078582764,
        0.6484894752502441
      ],
      "min": [
        0.2411147952079773,
        0.04830228537321091
      ],
      "type": "VEC2"
    },
    {
      "bufferView": 1,
      "byteOffset": 172488,
      "componentType": 5126,
      "count": 67,
      "max": [
        0.7513225078582764,
        0.6484894752502441
      ],
      "min": [
        0.2411147952079773,
        0.04830228537321091
      ],
      "type": "VEC2"
    },
    {
      "bufferView": 0,
      "byteOffset": 252576,
      "componentType": 5125,
      "count": 360,
      "type": "SCALAR"
    }
  ],
  "asset": {
    "extras": {
      "author": "spritemare (https://sketchfab.com/spritemare)",
      "license": "CC-BY-4.0 (http://creativecommons.org/licenses/by/4.0/)",
      "source": "https://sketchfab.com/3d-models/haunter-fbx-aed9849d58ba469baa3a191198c57d4d",
      "title": "Haunter fbx"
    },
    "generator": "Sketchfab-15.29.0",
    "version": "2.0"
  },
  "bufferViews": [
    {
      "buffer": 0,
      "byteLength": 254016,
      "name": "floatBufferViews",
      "target": 34963
    },
    {
      "buffer": 0,
      "byteLength": 173024,
      "byteOffset": 254016,
      "byteStride": 8,
      "name": "floatBufferViews",
      "target": 34962
    },
    {
      "buffer": 0,
      "byteLength": 259536,
      "byteOffset": 427040,
      "byteStride": 12,
      "name": "floatBufferViews",
      "target": 34962
    }
  ],
  "buffers": [
    {
      "byteLength": 686576,
      "uri": "scene.bin"
    }
  ],
  "materials": [
    {
      "doubleSided": true,
      "name": "Cartoon_814CA5",
      "pbrMetallicRoughness": {
        "baseColorFactor": [
          0.28003502526256785,
          0.09391867677438095,
          0.43342812192543173,
          1.0
        ],
        "metallicFactor": 0.0
      }
    },
    {
      "doubleSided": true,
      "name": "Cartoon_813758",
      "pbrMetallicRoughness": {
        "baseColorFactor": [
          0.505882,
          0.215686,
          0.345098,
          1.0
        ],
        "metallicFactor": 0.0,
        "roughnessFactor": 0.6
      }
    },
    {
      "doubleSided": true,
      "name": "Cartoon_9A6E85",
      "pbrMetallicRoughness": {
        "baseColorFactor": [
          0.5385150283849351,
          0.22409651984673232,
          0.3764116419069803,
          1.0
        ],
        "metallicFactor": 0.0,
        "roughnessFactor": 0.6
      }
    },
    {
      "doubleSided": true,
      "emissiveFactor": [
        0.9427541834664768,
        0.8380601117084007,
        0.8380601117084007
      ],
      "name": "Cartoon_FFFFFF",
      "pbrMetallicRoughness": {
        "metallicFactor": 0.0,
        "roughnessFactor": 0.6
      }
    },
    {
      "doubleSided": true,
      "name": "Standard_000000",
      "pbrMetallicRoughness": {
        "baseColorFactor": [
          0.0,
          0.0,
          0.0,
          1.0
        ],
        "metallicFactor": 0.0,
        "roughnessFactor": 0.6
      }
    }
  ],
  "meshes": [
    {
      "name": "s.0026_Cartoon_814CA5_0",
      "primitives": [
        {
          "attributes": {
            "NORMAL": 1,
            "POSITION": 0,
            "TEXCOORD_0": 2,
            "TEXCOORD_1": 3
          },
          "indices": 4,
          "material": 0,
          "mode": 4
        }
      ]
    },
    {
      "name": "s.0028_Cartoon_814CA5_0",
      "primitives": [
        {
          "attributes": {
            "NORMAL": 6,
            "POSITION": 5,
            "TEXCOORD_0": 7,
            "TEXCOORD_1": 8
          },
          "indices": 9,
          "material": 0,
          "mode": 4
        }
      ]
    },
    {
      "name": "s.0043_Cartoon_813758_0",
      "primitives": [
        {
          "attributes": {
            "NORMAL": 11,
            "POSITION": 10,
            "TEXCOORD_0": 12,
            "TEXCOORD_1": 13
          },
          "indices": 14,
          "material": 1,
          "mode": 4
        }
      ]
    },
    {
      "name": "s.0048_Cartoon_9A6E85_0",
      "primitives": [
        {
          "attributes": {
            "NORMAL": 16,
            "POSITION": 15,
            "TEXCOORD_0": 17,
            "TEXCOORD_1": 18
          },
          "indices": 19,
          "material": 2,
          "mode": 4
        }
      ]
    },
    {
      "name": "s.0053_Cartoon_FFFFFF_0",
      "primitives": [
        {
          "attributes": {
            "NORMAL": 21,
            "POSITION": 20,
            "TEXCOORD_0": 22,
            "TEXCOORD_1": 23
          },
          "indices": 24,
          "material": 3,
          "mode": 4
        }
      ]
    },
    {
      "name": "s.0055_Standard_000000_0",
      "primitives": [
        {
          "attributes": {
            "NORMAL": 26,
            "POSITION": 25,
            "TEXCOORD_0": 27,
            "TEXCOORD_1": 28
          },
          "indices": 29,
          "material": 4,
          "mode": 4
        }
      ]
    },
    {
      "name": "s.0056_Cartoon_814CA5_0",
      "primitives": [
        {
          "attributes": {
            "NORMAL": 31,
            "POSITION": 30,
            "TEXCOORD_0": 32,
            "TEXCOORD_1": 33
          },
          "indices": 34,
          "material": 0,
          "mode": 4
        }
      ]
    },
    {
      "name": "s.0058_Cartoon_FFFFFF_0",
      "primitives": [
        {
          "attributes": {
            "NORMAL": 36,
            "POSITION": 35,
            "TEXCOORD_0": 37,
            "TEXCOORD_1": 38
          },
          "indices": 39,
          "material": 3,
          "mode": 4
        }
      ]
    },
    {
      "name": "s.0059_Standard_000000_0",
      "primitives": [
        {
          "attributes": {
            "NORMAL": 41,
            "POSITION": 40,
            "TEXCOORD_0": 42,
            "TEXCOORD_1": 43
          },
          "indices": 44,
          "material": 4,
          "mode": 4
        }
      ]
    }
  ],
  "nodes": [
    {
      "children": [
        1
      ],
      "matrix": [
        -1.0,
        -2.011591547259045e-16,
        2.8393499951007764e-16,
        0.0,
        2.8305149120653225e-16,
        0.004378555342554824,
        0.9999904036521912,
        0.0,
        -2.024004418054362e-16,
        0.9999904036521912,
        -0.004378555342554824,
        0.0,
        0.0,
        0.0,
        0.0,
        1.0
      ],
      "name": "Sketchfab_model"
    },
    {
      "children": [
        2
      ],
      "matrix": [
        0.009999999776482582,
        0.0,
        0.0,
        0.0,
        0.0,
        0.0,
        0.009999999776482582,
        0.0,
        0.0,
        -0.009999999776482582,
        0.0,
        0.0,
        0.0,
        0.0,
        0.0,
        1.0
      ],
      "name": "4ed9a539fa7d4446b4d7771b0fbc3f0d.fbx"
    },
    {
      "children": [
        3
      ],
      "name": "RootNode"
    },
    {
      "children": [
        4
      ],
      "matrix": [
        100.0,
        0.0,
        0.0,
        0.0,
        0.0,
        100.0,
        0.0,
        0.0,
        0.0,
        0.0,
        100.0,
        0.0,
        0.0,
        0.0,
        0.0,
        1.0
      ],
      "name": "AutoSave.19-53"
    },
    {
      "children": [
        5
      ],
      "name": "Meshes"
    },
    {
      "children": [
        6,
        8,
        10,
        12,
        14,
        16,
        18,
        20,
        22
      ],
      "name": "Layer 1"
    },
    {
      "children": [
        7
      ],
      "matrix": [
        0.9964514607480457,
        -0.044681150504067256,
        -0.07132995130681741,
        0.0,
        -0.05310142857783812,
        0.32379954987835324,
        -0.9446344945004718,
        0.0,
        0.0653039660385211,
        0.9450702005633401,
        0.320277920633629,
        0.0,
        -0.25556930899620056,
        0.3764148950576782,
        -0.14237470924854279,
        1.0
      ],
      "name": "s.0026"
    },
    {
      "mesh": 0,
      "name": "s.0026_Cartoon_814CA5_0"
    },
    {
      "children": [
        9
      ],
      "matrix": [
        0.10687500040163192,
        0.5932438497549737,
        -0.05198836099760086,
        0.0,
        -0.020941404419544264,
        -0.0490423615491214,
        -0.6026770486892543,
        0.0,
        -0.5951491515009122,
        0.10825849695867269,
        0.011870381887740004,
        0.0,
        -0.4128868877887726,
        0.49941492080688477,
        -0.124705009162426,
        1.0
      ],
      "name": "s.0028"
    },
    {
      "mesh": 1,
      "name": "s.0028_Cartoon_814CA5_0"
    },
    {
      "children": [
        11
      ],
      "matrix": [
        0.930641998311116,
        0.34669913416959375,
        0.11706913062608247,
        0.0,
        -0.15235229048889115,
        0.6579765648536644,
        -0.7374656735646481,
        0.0,
        -0.3327074549244144,
        0.6684807779356303,
        0.6651610323585508,
        0.0,
        -0.2457468956708908,
        0.1755049228668213,
        -0.11655672639608383,
        1.0
      ],
      "name": "s.0043"
    },
    {
      "mesh": 2,
      "name": "s.0043_Cartoon_813758_0"
    },
    {
      "children": [
        13
      ],
      "matrix": [
        -0.28635174823407894,
        0.8829839447669201,
        0.37194390435350394,
        0.0,
        -0.026382408764873855,
        0.3807862394897876,
        -0.9242866483526575,
        0.0,
        -0.9577612773237033,
        -0.27448384102643447,
        -0.0857435517962919,
        0.0,
        -0.19409756362438202,
        0.34071671962738037,
        -0.13108022511005402,
        1.0
      ],
      "name": "s.0048"
    },
    {
      "mesh": 3,
      "name": "s.0048_Cartoon_9A6E85_0"
    },
    {
      "children": [
        15
      ],
      "matrix": [
        0.9915267159619126,
        -0.007404194915128094,
        -0.12969174773841102,
        0.0,
        -0.04485581594388427,
        0.9174509513900359,
        -0.39531216471230235,
        0.0,
        0.12191278566989283,
        0.39778000162297866,
        0.9093450076835689,
        0.0,
        -0.5604839324951172,
        0.4079176187515259,
        -0.5774967074394226,
        1.0
      ],
      "name": "s.0053"
    },
    {
      "mesh": 4,
      "name": "s.0053_Cartoon_FFFFFF_0"
    },
    {
      "children": [
        17
      ],
      "matrix": [
        0.940091649764108,
        0.2352027570013787,
        0.24679415135441962,
        0.0,
        -0.11057475566945871,
        0.8951265706683299,
        -0.43188151834987676,
        0.0,
        -0.32249172617671495,
        0.3787190061014971,
        0.8675085019554891,
        0.0,
        -0.1680482178926468,
        0.43598294258117676,
        -0.21108360588550568,
        1.0
      ],
      "name": "s.0055"
    },
    {
      "mesh": 5,
      "name": "s.0055_Standard_000000_0"
    },
    {
      "children": [
        19
      ],
      "matrix": [
        -0.045971535596907136,
        -0.5957949354434262,
        0.09827915282827651,
        0.0,
        -0.0570934626490387,
        -0.09383333530355889,
        -0.5955494976886502,
        0.0,
        0.6011411910512017,
        -0.05447452571667505,
        -0.049046646524544574,
        0.0,
        0.4294387996196747,
        0.43225085735321045,
        -0.1280340701341629,
        1.0
      ],
      "name": "s.0056"
    },
    {
      "mesh": 6,
      "name": "s.0056_Cartoon_814CA5_0"
    },
    {
      "children": [
        21
      ],
      "matrix": [
        0.9986354423725302,
        0.05177305323524708,
        0.006841359230535743,
        0.0,
        -0.044855972698719944,
        0.9174509454374395,
        -0.3953121607403446,
        0.0,
        -0.026743129036682585,
        0.39446585869330775,
        0.9185213614144631,
        0.0,
        0.5038812160491943,
        0.431646466255188,
        -0.6431986689567566,
        1.0
      ],
      "name": "s.0058"
    },
    {
      "mesh": 7,
      "name": "s.0058_Cartoon_FFFFFF_0"
    },
    {
      "children": [
        23
      ],
      "matrix": [
        0.9121318681291245,
        -0.19390904250330632,
        -0.3611298082112918,
        0.0,
        0.01679499334041073,
        0.8979662396615283,
        -0.43974360872847745,
        0.0,
        0.4095526380246703,
        0.39503898660341646,
        0.8223203247768434,
        0.0,
        0.15860815346240997,
        0.44326531887054443,
        -0.23124761879444122,
        1.0
      ],
      "name": "s.0059"
    },
    {
      "mesh": 8,
      "name": "s.0059_Standard_000000_0"
    }
  ],
  "scene": 0,
  "scenes": [
    {
      "name": "Sketchfab_Scene",
      "nodes": [
        0
      ]
    }
  ]
}
